<svg xmlns="http://www.w3.org/2000/svg" width="1024" height="1024">
  <path fill="none" stroke="#000" stroke-linecap="round" stroke-linejoin="round" stroke-width="64" d="M725.333 85.333H298.666c-117.821 0-213.333 95.513-213.333 213.333v426.667c0 117.82 95.513 213.333 213.333 213.333h426.667c117.82 0 213.333-95.514 213.333-213.333V298.666c0-117.821-95.514-213.333-213.333-213.333z"/>
  <path fill="none" stroke="#000" stroke-linecap="round" stroke-linejoin="round" stroke-width="64" d="M682.667 485.124c5.265 35.507-.798 71.774-17.331 103.637s-42.692 57.702-74.761 73.839c-32.064 16.141-68.399 21.76-103.842 16.055A170.679 170.679 0 0 1 345.347 537.27a170.666 170.666 0 1 1 337.319-52.146zM746.667 277.333h.427"/>
</svg>
