<svg xmlns="http://www.w3.org/2000/svg" width="1229" height="1024">
  <path fill="none" stroke="#000" stroke-linecap="round" stroke-linejoin="round" stroke-width="76.8" d="M1177.6 51.203a558.08 558.08 0 0 1-160.768 78.336c-30.838-35.455-71.818-60.585-117.402-71.991a229.369 229.369 0 0 0-245.453 93.685 229.365 229.365 0 0 0-39.578 131.906v51.2c-89.979 2.333-179.135-17.623-259.532-58.089S179.728 139.425 127.999 65.767c0 0-179.2 497.434 281.6 702.234a595.926 595.926 0 0 1-358.4 102.4c460.8 256 1024 0 1024-588.797a230.265 230.265 0 0 0-4.096-42.496 395.273 395.273 0 0 0 106.496-187.904z"/>
</svg>
